<svg xmlns="http://www.w3.org/2000/svg" xmlns:xlink="http://www.w3.org/1999/xlink" width="100" height="100" viewBox="0 0 100 100" fill="none">
<path d="M23.5938 88.0278C21.2852 85.7192 21.2578 81.8325 23.7019 79.3883C27.7186 75.3717 27.8455 68.6035 23.7985 64.5565C19.7349 60.4928 13.0321 60.4845 8.9151 64.6015C4.7979 68.7187 4.75399 75.4737 8.81766 79.5374C10.6326 81.3523 12.9524 82.3208 15.3398 82.4767C15.3943 82.2163 15.4855 80.3822 16.6016 78.1443C14.9303 78.233 13.2325 77.6665 11.9605 76.3945C9.60293 74.037 9.68023 70.144 12.0689 67.7553C14.4575 65.3668 18.2981 65.3418 20.6557 67.6993C22.9643 70.0079 23.0441 73.8422 20.6 76.2864C16.6765 80.2099 16.3123 87.0321 20.4509 91.1706C24.5146 95.2343 31.2696 95.1904 35.3868 91.0732C39.5038 86.9561 39.4955 80.2534 35.4318 76.1897C33.6169 74.3748 31.2971 73.4063 28.9096 73.2504C28.8552 73.5108 28.7637 75.3447 27.6479 77.5828C29.3191 77.4941 31.017 78.0606 32.289 79.3326C34.6465 81.6902 34.6731 85.5824 32.2846 87.971C29.8959 90.3597 25.9513 90.3854 23.5938 88.0278Z"   fill="url(#linear_fill_HE9efTVgmXkrU2TUEMxQR)" >
</path>
<path d="M58.2177 95.5544C54.9529 95.5544 52.1852 92.8254 52.1852 89.3689C52.1852 83.6884 47.4891 78.8129 41.7658 78.8129C36.0189 78.8129 31.2734 83.5465 31.2734 89.3689C31.2734 95.1915 36.0189 99.999 41.7658 99.999C44.3325 99.999 46.6576 99.0435 48.4561 97.4656C48.3105 97.2429 47.0781 95.8815 46.2848 93.5099C45.1658 94.7544 43.5646 95.5544 41.7658 95.5544C38.4317 95.5544 35.7336 92.747 35.7336 89.3689C35.7336 85.9909 38.4317 83.2575 41.7658 83.2575C45.0306 83.2575 47.7983 85.9123 47.7983 89.3689C47.7983 94.9175 52.3649 99.999 58.2177 99.999C63.9646 99.999 68.7101 95.1915 68.7101 89.3689C68.7101 83.5465 63.9646 78.8129 58.2177 78.8129C55.651 78.8129 53.3259 79.7683 51.5274 81.3463C51.673 81.569 52.9051 82.9304 53.6987 85.302C54.8177 84.0575 56.4189 83.2575 58.2177 83.2575C61.5518 83.2575 64.3229 85.9909 64.3229 89.3689C64.3229 92.747 61.5518 95.5544 58.2177 95.5544Z"   fill="url(#linear_fill_NXjiW4IY4-sy1TE-nD1Qp)" >
</path>
<path d="M88.0268 76.3945C85.7182 78.7031 81.8315 78.7305 79.3874 76.2864C75.3707 72.2697 68.6025 72.1427 64.5555 76.1897C60.4919 80.2534 60.4835 86.9561 64.6005 91.0732C68.7177 95.1904 75.4727 95.2343 79.5364 91.1706C81.3513 89.3557 82.3198 87.0359 82.4758 84.6485C82.2153 84.594 80.3812 84.5028 78.1433 83.3867C78.232 85.0579 77.6655 86.7558 76.3936 88.0278C74.036 90.3854 70.1431 90.308 67.7544 87.9193C65.3658 85.5308 65.3408 81.6901 67.6984 79.3326C70.007 77.024 73.8413 76.9442 76.2854 79.3883C80.2089 83.3118 87.0311 83.676 91.1697 79.5374C95.2333 75.4737 95.1894 68.7187 91.0722 64.6015C86.9552 60.4844 80.2524 60.4928 76.1888 64.5565C74.3739 66.3714 73.4054 68.6912 73.2494 71.0787C73.5099 71.1331 75.3437 71.2246 77.5819 72.3404C77.4931 70.6692 78.0596 68.9713 79.3316 67.6993C81.6892 65.3418 85.5815 65.3152 87.97 67.7037C90.3587 70.0924 90.3844 74.037 88.0268 76.3945Z"   fill="url(#linear_fill_WwcaWMbLkt9-QkD9V8cVR)" >
</path>
<path d="M95.5554 41.7725C95.5554 45.0374 92.8264 47.8051 89.3698 47.8051C83.6894 47.8051 78.8138 52.5011 78.8138 58.2244C78.8138 63.9713 83.5475 68.7168 89.3698 68.7168C95.1924 68.7168 100 63.9713 100 58.2244C100 55.6578 99.0445 53.3326 97.4666 51.5341C97.2439 51.6798 95.8825 52.9122 93.5109 53.7055C94.7554 54.8244 95.5554 56.4256 95.5554 58.2244C95.5554 61.5585 92.748 64.2566 89.3698 64.2566C85.9919 64.2566 83.2585 61.5585 83.2585 58.2244C83.2585 54.9596 85.9133 52.1919 89.3698 52.1919C94.9185 52.1919 100 47.6254 100 41.7725C100 36.0256 95.1924 31.2802 89.3698 31.2802C83.5475 31.2802 78.8138 36.0256 78.8138 41.7725C78.8138 44.3392 79.7693 46.6644 81.3473 48.4628C81.5699 48.3172 82.9314 47.0852 85.3029 46.2915C84.0585 45.1725 83.2585 43.5714 83.2585 41.7725C83.2585 38.4384 85.9919 35.6674 89.3698 35.6674C92.748 35.6674 95.5554 38.4384 95.5554 41.7725Z"   fill="url(#linear_fill_W3Mq8Siabi6Lhx9JgNnWZ)" >
</path>
<path d="M76.3906 11.9722C78.6992 14.2808 78.7266 18.1675 76.2825 20.6117C72.2658 24.6283 72.1388 31.3965 76.1858 35.4435C80.2495 39.5072 86.9522 39.5155 91.0693 35.3985C95.1865 31.2813 95.2304 24.5263 91.1667 20.4626C89.3518 18.6477 87.032 17.6792 84.6445 17.5233C84.5901 17.7837 84.4988 19.6178 83.3828 21.8557C85.054 21.767 86.7519 22.3335 88.0239 23.6055C90.3814 25.963 90.3041 29.856 87.9154 32.2447C85.5269 34.6332 81.6862 34.6582 79.3287 32.3007C77.0201 29.9921 76.9403 26.1578 79.3844 23.7136C83.3079 19.7901 83.6721 12.9679 79.5335 8.82937C75.4698 4.7657 68.7148 4.80961 64.5976 8.92681C60.4805 13.0439 60.4889 19.7466 64.5526 23.8103C66.3675 25.6252 68.6873 26.5937 71.0748 26.7496C71.1292 26.4892 71.2207 24.6553 72.3365 22.4172C70.6653 22.5059 68.9674 21.9394 67.6954 20.6674C65.3379 18.3098 65.3112 14.4176 67.6998 12.029C70.0885 9.64032 74.0331 9.61464 76.3906 11.9722Z"   fill="url(#linear_fill_UJNZWT6aaghVe28uJgS3x)" >
</path>
<path d="M41.7589 4.44465C45.0237 4.44465 47.7914 7.17364 47.7914 10.6302C47.7914 16.3106 52.4875 21.1862 58.2108 21.1862C63.9577 21.1862 68.7031 16.4525 68.7031 10.6302C68.7031 4.80757 63.9577 2.90576e-16 58.2108 6.42472e-16C55.6441 7.99634e-16 53.3189 0.955496 51.5205 2.53344C51.6661 2.75611 52.8985 4.11753 53.6918 6.48911C54.8108 5.24464 56.4119 4.44465 58.2108 4.44465C61.5449 4.44465 64.2429 7.25203 64.2429 10.6302C64.2429 14.0081 61.5449 16.7415 58.2108 16.7415C54.9459 16.7415 52.1782 14.0867 52.1782 10.6302C52.1782 5.0815 47.6117 1.29148e-15 41.7589 1.64986e-15C36.012 2.00176e-15 31.2665 4.80757 31.2665 10.6302C31.2665 16.4525 36.012 21.1862 41.7589 21.1862C44.3255 21.1862 46.6507 20.2307 48.4492 18.6527C48.3035 18.4301 47.0715 17.0686 46.2778 14.6971C45.1589 15.9415 43.5577 16.7415 41.7589 16.7415C38.4248 16.7415 35.6537 14.0081 35.6537 10.6302C35.6537 7.25203 38.4248 4.44465 41.7589 4.44465Z"   fill="url(#linear_fill_DJrT2jvWauOZXki1l6ERL)" >
</path>
<path d="M11.9654 23.6074C14.274 21.2988 18.1607 21.2715 20.6048 23.7156C24.6215 27.7323 31.3897 27.8592 35.4367 23.8122C39.5003 19.7485 39.5087 13.0458 35.3917 8.92877C31.2745 4.81157 24.5194 4.76766 20.4558 8.83133C18.6409 10.6462 17.6724 12.966 17.5164 15.3535C17.7769 15.408 19.611 15.4992 21.8489 16.6152C21.7601 14.944 22.3267 13.2461 23.5986 11.9742C25.9562 9.6166 29.8491 9.6939 32.2378 12.0826C34.6264 14.4712 34.6514 18.3118 32.2938 20.6694C29.9852 22.978 26.1509 23.0578 23.7068 20.6136C19.7833 16.6901 12.9611 16.326 8.82253 20.4646C4.75886 24.5282 4.80277 31.2833 8.91997 35.4005C13.037 39.5175 19.7397 39.5091 23.8034 35.4455C25.6183 33.6306 26.5868 31.3108 26.7428 28.9233C26.4823 28.8688 24.6485 28.7773 22.4103 27.6616C22.4991 29.3328 21.9325 31.0307 20.6606 32.3026C18.303 34.6602 14.4107 34.6868 12.0222 32.2982C9.63348 29.9095 9.6078 25.965 11.9654 23.6074Z"   fill="url(#linear_fill_q6fVbdPauG9sUyc5H3ApN)" >
</path>
<path d="M4.44465 58.2275C4.44465 54.9626 7.17364 52.1949 10.6302 52.1949C16.3106 52.1949 21.1862 47.4989 21.1862 41.7756C21.1862 36.0287 16.4525 31.2832 10.6302 31.2832C4.80757 31.2832 0 36.0287 0 41.7756C0 44.3422 0.955497 46.6674 2.53344 48.4659C2.75611 48.3202 4.11753 47.0878 6.48911 46.2945C5.24464 45.1756 4.44465 43.5744 4.44465 41.7756C4.44465 38.4415 7.25203 35.7434 10.6302 35.7434C14.0081 35.7434 16.7415 38.4415 16.7415 41.7756C16.7415 45.0404 14.0867 47.8081 10.6302 47.8081C5.0815 47.8081 0 52.3746 0 58.2275C0 63.9744 4.80757 68.7198 10.6302 68.7198C16.4525 68.7198 21.1862 63.9744 21.1862 58.2275C21.1862 55.6608 20.2307 53.3356 18.6527 51.5372C18.4301 51.6828 17.0686 52.9148 14.6971 53.7085C15.9415 54.8275 16.7415 56.4286 16.7415 58.2275C16.7415 61.5616 14.0081 64.3326 10.6302 64.3326C7.25203 64.3326 4.44465 61.5616 4.44465 58.2275Z"   fill="url(#linear_fill_TcvTuJqJTK)" >
</path>
<path d="M59.6781 43.0722L59.6781 43.0226L63.2233 39.4896L59.8921 35.9689L59.8921 35.9193L65.5109 35.9193L65.5109 35.002L58.2199 35.002L58.2199 35.6962L61.8453 39.5144L58.0059 43.3449L58.0059 44.002L66.0059 44.002L66.0059 43.0722L59.6781 43.0722Z"   fill="url(#linear_fill_21_118)" >
</path>
<path d="M42.6082 44.2532C43.124 44.2532 43.54 44.1534 43.8395 44.0535L43.6232 42.8888C43.2904 42.9554 43.0574 42.9886 42.9077 42.9886C42.342 42.9886 42.0591 42.7391 42.0591 42.1068C42.0591 41.2249 42.0757 38.3131 42.1922 36.2499L44.0059 36.2499L44.0059 35.002L35.3037 35.002L34.0059 35.0851L34.0059 36.2499L36.1024 36.2499C36.1024 38.6958 35.8694 41.4911 35.4534 44.0369L36.9842 44.1201C37.2338 41.591 37.5 38.7956 37.5 36.2499L40.7446 36.2499C40.7113 38.2465 40.6282 41.0585 40.6282 42.0069C40.6282 43.4545 41.1772 44.2532 42.6082 44.2532Z"   fill="url(#linear_fill_21_119)" >
</path>
<path d="M34.0059 66.002L37.948 66.002L37.948 65.1936C36.6847 64.3974 35.6801 63.203 35.6801 61.3331C35.6801 59.4148 36.913 57.9792 38.9982 57.9792C41.0835 57.9792 42.3164 59.4148 42.3164 61.3331C42.3164 63.203 41.327 64.3974 40.0333 65.1936L40.0333 66.002L44.0059 66.002L44.0059 65.0851L41.7684 65.0851L41.7684 65.0368C42.7425 64.2767 43.7623 63.0583 43.7623 61.2727C43.7623 58.7875 41.875 57.002 38.9982 57.002C36.1063 57.002 34.2342 58.7875 34.2342 61.2727C34.2342 63.0583 35.2692 64.2767 36.2281 65.0368L36.2281 65.0851L34.0059 65.0851L34.0059 66.002Z"   fill="url(#linear_fill_21_120)" >
</path>
<path d="M57.9283 60.0561C57.9283 58.8832 58.9444 57.8032 60.816 57.8032L67.0059 57.8032L67.0059 57.002L60.816 57.002C58.4363 57.002 57.0059 58.442 57.0059 60.0561C57.0059 61.682 58.4363 63.122 60.816 63.122L67.0059 63.122L67.0059 62.3207L60.816 62.3207C58.9444 62.3207 57.9283 61.2407 57.9283 60.0561ZM67.0059 65.2007L57.0593 65.2007L57.0593 66.002L67.0059 66.002L67.0059 65.2007Z"   fill="url(#linear_fill_21_121)" >
</path>
<path   fill="url(#linear_border_21_125_0)"  d="M31.0059 51.502L47.0059 51.502C48.3866 51.502 49.5059 52.6212 49.5059 54.002L49.5059 70.002C49.5059 71.3827 48.3866 72.502 47.0059 72.502L31.0059 72.502C29.6251 72.502 28.5059 71.3827 28.5059 70.002L28.5059 54.002C28.5059 52.6212 29.6251 51.502 31.0059 51.502ZM31.0059 52.502C30.1774 52.502 29.5059 53.1735 29.5059 54.002L29.5059 70.002C29.5059 70.8304 30.1774 71.502 31.0059 71.502L47.0059 71.502C47.8343 71.502 48.5059 70.8304 48.5059 70.002L48.5059 54.002C48.5059 53.1735 47.8343 52.502 47.0059 52.502L31.0059 52.502Z">
</path>
<path   fill="url(#linear_border_21_124_0)"  d="M54.0059 28.502L70.0059 28.502C71.3866 28.502 72.5059 29.6212 72.5059 31.002L72.5059 47.002C72.5059 48.3827 71.3866 49.502 70.0059 49.502L54.0059 49.502C52.6251 49.502 51.5059 48.3827 51.5059 47.002L51.5059 31.002C51.5059 29.6212 52.6251 28.502 54.0059 28.502ZM54.0059 29.502C53.1774 29.502 52.5059 30.1735 52.5059 31.002L52.5059 47.002C52.5059 47.8304 53.1774 48.502 54.0059 48.502L70.0059 48.502C70.8343 48.502 71.5059 47.8304 71.5059 47.002L71.5059 31.002C71.5059 30.1735 70.8343 29.502 70.0059 29.502L54.0059 29.502Z">
</path>
<path   fill="url(#linear_border_21_126_0)"  d="M54.0059 51.502L70.0059 51.502C71.3866 51.502 72.5059 52.6212 72.5059 54.002L72.5059 70.002C72.5059 71.3827 71.3866 72.502 70.0059 72.502L54.0059 72.502C52.6251 72.502 51.5059 71.3827 51.5059 70.002L51.5059 54.002C51.5059 52.6212 52.6251 51.502 54.0059 51.502ZM54.0059 52.502C53.1774 52.502 52.5059 53.1735 52.5059 54.002L52.5059 70.002C52.5059 70.8304 53.1774 71.502 54.0059 71.502L70.0059 71.502C70.8343 71.502 71.5059 70.8304 71.5059 70.002L71.5059 54.002C71.5059 53.1735 70.8343 52.502 70.0059 52.502L54.0059 52.502Z">
</path>
<path   fill="url(#linear_border_26_92_0)"  d="M31 28.5L47 28.5C48.3807 28.5 49.5 29.6193 49.5 31L49.5 47C49.5 48.3807 48.3807 49.5 47 49.5L31 49.5C29.6193 49.5 28.5 48.3807 28.5 47L28.5 31C28.5 29.6193 29.6193 28.5 31 28.5ZM31 29.5C30.1716 29.5 29.5 30.1716 29.5 31L29.5 47C29.5 47.8284 30.1716 48.5 31 48.5L47 48.5C47.8284 48.5 48.5 47.8284 48.5 47L48.5 31C48.5 30.1716 47.8284 29.5 47 29.5L31 29.5Z">
</path>
<defs>
<linearGradient id="linear_fill_HE9efTVgmXkrU2TUEMxQR" x1="14.634765625" y1="85.35400390625" x2="29.615234375" y2="70.373046875" gradientUnits="userSpaceOnUse">
<stop offset="0.0092" stop-color="#AAEFF2"  />
<stop offset="0.3349" stop-color="#88BFF2" stop-opacity="0.95" />
<stop offset="0.7436" stop-color="#A2A9FC" stop-opacity="0.89" />
<stop offset="1" stop-color="#976BFF" stop-opacity="0.8" />
</linearGradient>
<linearGradient id="linear_fill_NXjiW4IY4-sy1TE-nD1Qp" x1="49.9921875" y1="99.9990234375" x2="49.9921875" y2="78.81298828125" gradientUnits="userSpaceOnUse">
<stop offset="0.0092" stop-color="#AAEFF2"  />
<stop offset="0.3349" stop-color="#88BFF2" stop-opacity="0.95" />
<stop offset="0.7436" stop-color="#A2A9FC" stop-opacity="0.89" />
<stop offset="1" stop-color="#976BFF" stop-opacity="0.8" />
</linearGradient>
<linearGradient id="linear_fill_WwcaWMbLkt9-QkD9V8cVR" x1="85.353515625" y1="85.35400390625" x2="70.373046875" y2="70.373046875" gradientUnits="userSpaceOnUse">
<stop offset="0.0092" stop-color="#AAEFF2"  />
<stop offset="0.3349" stop-color="#88BFF2" stop-opacity="0.95" />
<stop offset="0.7436" stop-color="#A2A9FC" stop-opacity="0.89" />
<stop offset="1" stop-color="#976BFF" stop-opacity="0.8" />
</linearGradient>
<linearGradient id="linear_fill_W3Mq8Siabi6Lhx9JgNnWZ" x1="100" y1="49.99853515625" x2="78.814453125" y2="49.99853515625" gradientUnits="userSpaceOnUse">
<stop offset="0.0092" stop-color="#AAEFF2"  />
<stop offset="0.3349" stop-color="#88BFF2" stop-opacity="0.95" />
<stop offset="0.7436" stop-color="#A2A9FC" stop-opacity="0.89" />
<stop offset="1" stop-color="#976BFF" stop-opacity="0.8" />
</linearGradient>
<linearGradient id="linear_fill_UJNZWT6aaghVe28uJgS3x" x1="85.349609375" y1="14.64599609375" x2="70.369140625" y2="29.626953125" gradientUnits="userSpaceOnUse">
<stop offset="0.0092" stop-color="#AAEFF2"  />
<stop offset="0.3349" stop-color="#88BFF2" stop-opacity="0.95" />
<stop offset="0.7436" stop-color="#A2A9FC" stop-opacity="0.89" />
<stop offset="1" stop-color="#976BFF" stop-opacity="0.8" />
</linearGradient>
<linearGradient id="linear_fill_DJrT2jvWauOZXki1l6ERL" x1="49.984375" y1="0" x2="49.984375" y2="21.18603515625" gradientUnits="userSpaceOnUse">
<stop offset="0.0092" stop-color="#AAEFF2"  />
<stop offset="0.3349" stop-color="#88BFF2" stop-opacity="0.95" />
<stop offset="0.7436" stop-color="#A2A9FC" stop-opacity="0.89" />
<stop offset="1" stop-color="#976BFF" stop-opacity="0.8" />
</linearGradient>
<linearGradient id="linear_fill_q6fVbdPauG9sUyc5H3ApN" x1="14.638671875" y1="14.64794921875" x2="29.619140625" y2="29.62890625" gradientUnits="userSpaceOnUse">
<stop offset="0.0092" stop-color="#AAEFF2"  />
<stop offset="0.3349" stop-color="#88BFF2" stop-opacity="0.95" />
<stop offset="0.7436" stop-color="#A2A9FC" stop-opacity="0.89" />
<stop offset="1" stop-color="#976BFF" stop-opacity="0.8" />
</linearGradient>
<linearGradient id="linear_fill_TcvTuJqJTK" x1="0" y1="50.00146484375" x2="21.185546875" y2="50.00146484375" gradientUnits="userSpaceOnUse">
<stop offset="0.0092" stop-color="#AAEFF2"  />
<stop offset="0.3349" stop-color="#88BFF2" stop-opacity="0.95" />
<stop offset="0.7436" stop-color="#A2A9FC" stop-opacity="0.89" />
<stop offset="1" stop-color="#976BFF" stop-opacity="0.8" />
</linearGradient>
<linearGradient id="linear_fill_21_118" x1="58.005859375" y1="39.501953125" x2="66.005859375" y2="39.501953125" gradientUnits="userSpaceOnUse">
<stop offset="0.0092" stop-color="#AAEFF2"  />
<stop offset="0.3349" stop-color="#88BFF2" stop-opacity="0.95" />
<stop offset="0.7436" stop-color="#A2A9FC" stop-opacity="0.89" />
<stop offset="1" stop-color="#976BFF" stop-opacity="0.8" />
</linearGradient>
<linearGradient id="linear_fill_21_119" x1="34.005859375" y1="39.62744140625" x2="44.005859375" y2="39.62744140625" gradientUnits="userSpaceOnUse">
<stop offset="0.0092" stop-color="#AAEFF2"  />
<stop offset="0.3349" stop-color="#88BFF2" stop-opacity="0.95" />
<stop offset="0.7436" stop-color="#A2A9FC" stop-opacity="0.89" />
<stop offset="1" stop-color="#976BFF" stop-opacity="0.8" />
</linearGradient>
<linearGradient id="linear_fill_21_120" x1="34.005859375" y1="61.501953125" x2="44.005859375" y2="61.501953125" gradientUnits="userSpaceOnUse">
<stop offset="0.0092" stop-color="#AAEFF2"  />
<stop offset="0.3349" stop-color="#88BFF2" stop-opacity="0.95" />
<stop offset="0.7436" stop-color="#A2A9FC" stop-opacity="0.89" />
<stop offset="1" stop-color="#976BFF" stop-opacity="0.8" />
</linearGradient>
<linearGradient id="linear_fill_21_121" x1="57.005859375" y1="61.501953125" x2="67.005859375" y2="61.501953125" gradientUnits="userSpaceOnUse">
<stop offset="0.0092" stop-color="#AAEFF2"  />
<stop offset="0.3349" stop-color="#88BFF2" stop-opacity="0.95" />
<stop offset="0.7436" stop-color="#A2A9FC" stop-opacity="0.89" />
<stop offset="1" stop-color="#976BFF" stop-opacity="0.8" />
</linearGradient>
<linearGradient id="linear_border_21_125_0" x1="29.005859375" y1="62.001953125" x2="49.005859375" y2="62.001953125" gradientUnits="userSpaceOnUse">
<stop offset="0.0092" stop-color="#AAEFF2"  />
<stop offset="0.3349" stop-color="#88BFF2" stop-opacity="0.95" />
<stop offset="0.7436" stop-color="#A2A9FC" stop-opacity="0.89" />
<stop offset="1" stop-color="#976BFF" stop-opacity="0.8" />
</linearGradient>
<linearGradient id="linear_border_21_124_0" x1="52.005859375" y1="39.001953125" x2="72.005859375" y2="39.001953125" gradientUnits="userSpaceOnUse">
<stop offset="0.0092" stop-color="#AAEFF2"  />
<stop offset="0.3349" stop-color="#88BFF2" stop-opacity="0.95" />
<stop offset="0.7436" stop-color="#A2A9FC" stop-opacity="0.89" />
<stop offset="1" stop-color="#976BFF" stop-opacity="0.8" />
</linearGradient>
<linearGradient id="linear_border_21_126_0" x1="52.005859375" y1="62.001953125" x2="72.005859375" y2="62.001953125" gradientUnits="userSpaceOnUse">
<stop offset="0.0092" stop-color="#AAEFF2"  />
<stop offset="0.3349" stop-color="#88BFF2" stop-opacity="0.95" />
<stop offset="0.7436" stop-color="#A2A9FC" stop-opacity="0.89" />
<stop offset="1" stop-color="#976BFF" stop-opacity="0.8" />
</linearGradient>
<linearGradient id="linear_border_26_92_0" x1="29" y1="39" x2="49" y2="39" gradientUnits="userSpaceOnUse">
<stop offset="0.0092" stop-color="#AAEFF2"  />
<stop offset="0.3349" stop-color="#88BFF2" stop-opacity="0.95" />
<stop offset="0.7436" stop-color="#A2A9FC" stop-opacity="0.89" />
<stop offset="1" stop-color="#976BFF" stop-opacity="0.8" />
</linearGradient>
</defs>
</svg>
